<?xml version="1.0" encoding="UTF-8" ?>
<!DOCTYPE svg PUBLIC "-//W3C//DTD SVG 1.1//EN" "http://www.w3.org/Graphics/SVG/1.1/DTD/svg11.dtd">
<svg width="516pt" height="353pt" viewBox="0 0 516 353" version="1.1" xmlns="http://www.w3.org/2000/svg">
<path fill="#ffffff" d=" M 0.00 0.00 L 292.55 0.00 C 288.87 3.79 285.16 7.60 280.90 10.74 C 279.66 11.53 279.84 13.16 279.42 14.39 C 274.15 14.40 268.89 11.74 263.78 14.24 C 263.44 11.39 264.31 8.70 265.62 6.22 C 265.03 5.44 264.45 4.67 263.87 3.89 C 261.31 4.38 258.74 4.77 256.17 5.16 C 251.03 6.12 246.56 8.97 241.68 10.67 C 242.51 11.45 243.31 12.27 244.09 13.12 C 243.73 14.40 243.22 15.63 242.75 16.88 C 244.78 19.28 246.92 21.58 248.90 24.02 C 247.35 25.15 245.84 26.52 243.92 26.93 C 241.97 26.74 240.08 26.18 238.17 25.84 C 238.08 25.09 237.90 23.58 237.80 22.83 C 232.02 23.10 226.21 22.75 220.44 23.44 C 221.23 25.25 222.18 26.99 223.16 28.70 C 219.71 31.74 216.91 35.46 213.29 38.29 C 209.32 40.67 205.45 43.25 201.33 45.36 C 198.72 47.02 195.32 45.10 192.73 46.81 C 190.63 48.00 188.76 49.54 186.67 50.75 C 185.26 50.84 183.86 50.51 182.47 50.36 C 181.52 51.49 180.60 52.64 179.67 53.78 C 179.35 52.44 179.03 51.10 178.72 49.76 C 174.74 51.74 170.20 52.06 165.86 51.36 C 166.11 48.88 166.43 46.40 166.96 43.96 C 163.04 41.99 158.87 40.81 154.52 40.43 C 149.74 37.80 144.30 36.92 139.19 35.21 C 135.71 36.61 132.07 37.54 128.36 38.07 C 128.87 40.48 129.35 42.90 129.90 45.30 C 126.70 45.62 123.48 46.18 120.26 45.91 C 117.56 44.34 114.97 42.39 112.81 40.11 C 111.57 37.99 111.44 35.41 110.28 33.23 C 111.17 32.38 112.07 31.56 112.88 30.64 C 112.47 28.25 111.61 25.97 110.88 23.67 C 106.21 24.46 101.53 25.38 97.11 27.15 C 92.15 29.17 86.58 29.28 81.81 31.82 C 81.61 31.86 81.23 31.95 81.04 31.99 C 76.73 31.82 72.69 33.82 69.29 36.28 C 61.28 41.68 51.91 44.61 43.97 50.10 C 35.62 54.95 27.05 59.40 18.21 63.27 C 11.74 64.81 6.25 68.76 0.00 70.89 L 0.00 0.00 Z" />
<path fill="#070708" d=" M 292.55 0.00 L 295.33 0.00 C 298.44 1.00 301.11 2.89 303.91 4.53 C 304.06 6.05 304.25 7.57 304.49 9.08 C 303.62 9.66 302.75 10.22 301.89 10.78 C 301.99 12.17 302.10 13.56 302.20 14.94 C 304.97 15.89 307.90 15.90 310.78 16.20 C 312.28 16.80 313.48 17.96 314.91 18.72 C 317.39 16.54 319.49 13.93 322.40 12.26 C 324.41 11.37 324.21 8.94 324.69 7.14 C 325.01 4.97 327.33 3.99 328.74 2.55 C 329.98 5.38 332.70 6.23 335.57 6.42 C 336.72 8.77 337.74 11.19 338.71 13.63 C 337.22 15.74 335.73 17.86 334.33 20.03 C 338.07 23.52 343.34 26.98 342.42 32.88 C 343.38 33.21 344.34 33.55 345.30 33.89 C 347.08 33.08 348.81 31.66 350.90 31.98 C 353.22 32.57 355.25 33.91 357.39 34.96 C 356.57 37.30 355.58 39.58 354.71 41.91 C 359.04 41.23 363.36 42.27 367.69 41.95 C 368.60 41.27 369.45 40.53 370.26 39.73 C 373.06 40.40 375.88 41.06 378.65 41.87 C 381.14 38.41 385.87 38.25 388.28 34.79 C 392.48 35.74 395.10 39.23 398.24 41.88 C 398.52 44.23 397.89 46.70 398.84 48.96 C 403.11 50.89 408.11 51.25 411.86 54.28 C 416.69 57.30 422.39 53.23 427.41 55.73 C 427.73 57.24 428.03 58.76 428.34 60.28 C 430.09 59.47 431.84 58.68 433.60 57.87 C 435.22 59.71 436.90 61.50 438.57 63.31 C 436.36 64.85 433.96 66.09 431.62 67.42 C 432.85 67.95 434.09 68.47 435.33 69.00 C 435.24 69.72 435.07 71.17 434.98 71.89 C 433.74 71.93 432.52 71.97 431.29 72.01 C 431.34 73.88 431.26 75.75 431.15 77.62 C 429.94 77.97 428.74 78.36 427.57 78.79 C 426.65 81.03 427.93 83.36 427.56 85.64 C 427.40 90.39 422.74 92.83 420.05 96.18 C 419.73 93.94 421.65 92.44 422.95 90.91 C 424.78 89.03 425.55 86.44 426.89 84.22 C 425.90 83.79 424.92 83.36 423.95 82.93 C 424.98 80.61 425.91 78.26 426.86 75.91 C 427.78 76.35 428.71 76.78 429.64 77.21 C 429.44 73.54 430.26 69.96 431.28 66.46 C 432.32 64.94 434.00 64.06 435.44 62.97 C 434.82 62.06 434.21 61.14 433.60 60.23 C 431.36 61.01 429.12 61.80 426.92 62.70 C 425.84 60.50 424.89 58.24 423.97 55.98 C 419.02 57.25 412.53 58.55 408.71 54.27 C 405.21 52.06 400.93 51.53 397.18 49.84 C 397.05 47.37 396.99 44.89 396.94 42.42 C 394.55 40.62 392.48 38.41 389.99 36.75 C 386.30 38.37 382.99 40.72 379.64 42.93 C 376.33 42.89 372.97 41.35 369.72 42.70 C 364.73 44.54 359.45 42.25 354.45 43.96 C 353.38 41.02 354.49 38.01 355.18 35.13 C 353.14 34.40 351.04 32.74 348.83 33.84 C 346.48 34.83 343.96 34.97 341.47 34.59 C 341.22 32.85 341.08 31.09 340.74 29.37 C 338.92 25.62 335.56 22.98 332.39 20.40 C 333.95 17.91 335.49 15.41 337.24 13.04 C 336.03 11.17 335.22 8.99 333.67 7.37 C 331.40 6.87 329.11 6.41 326.97 5.48 C 326.74 8.43 326.03 11.56 323.34 13.26 C 319.67 15.61 317.27 19.44 313.46 21.59 C 312.22 20.36 311.47 18.48 309.80 17.78 C 307.94 17.73 306.09 17.98 304.24 17.82 C 302.69 17.15 301.43 15.99 300.09 14.99 C 300.53 11.98 301.49 9.09 302.17 6.13 C 299.89 3.87 297.05 2.19 293.95 1.35 C 289.58 4.47 286.61 9.35 281.70 11.78 C 281.64 13.10 281.58 14.42 281.50 15.74 C 277.19 16.25 273.05 14.79 268.82 14.38 C 266.50 14.72 264.34 15.73 262.09 16.31 C 261.50 12.54 262.04 8.82 264.33 5.69 C 258.02 5.34 252.11 7.58 246.50 10.19 C 246.16 12.52 245.55 14.81 244.60 16.96 C 246.76 19.26 249.01 21.51 250.84 24.10 C 247.88 28.74 242.02 28.27 237.25 27.80 C 237.10 26.51 236.96 25.23 236.82 23.94 C 232.25 24.17 227.68 24.43 223.12 24.82 C 223.63 26.21 225.16 27.65 224.10 29.15 C 223.61 30.51 222.32 31.33 221.37 32.35 C 218.73 34.72 216.84 37.90 213.71 39.71 C 209.55 42.24 205.43 44.86 201.17 47.23 C 198.58 48.66 195.21 46.86 192.81 48.82 C 188.79 52.01 183.82 53.46 179.02 55.01 C 177.51 54.55 176.19 53.64 174.72 53.11 C 171.38 52.60 167.68 54.29 164.63 52.32 C 163.65 49.82 164.33 47.09 164.59 44.52 C 160.91 43.22 157.19 42.04 153.30 41.55 C 149.31 39.75 145.12 38.50 140.90 37.34 C 137.60 38.62 134.13 39.31 130.71 40.19 C 131.11 42.30 131.58 44.38 132.05 46.47 C 125.54 47.31 118.36 48.07 112.53 44.39 C 110.28 40.80 109.28 36.62 107.87 32.66 C 109.08 32.10 110.29 31.55 111.49 30.98 C 110.83 29.03 110.21 27.05 109.69 25.06 C 100.27 26.82 91.51 31.52 81.81 31.82 C 86.58 29.28 92.15 29.17 97.11 27.15 C 101.53 25.38 106.21 24.46 110.88 23.67 C 111.61 25.97 112.47 28.25 112.88 30.64 C 112.07 31.56 111.17 32.38 110.28 33.23 C 111.44 35.41 111.57 37.99 112.81 40.11 C 114.97 42.39 117.56 44.34 120.26 45.91 C 123.48 46.18 126.70 45.62 129.90 45.30 C 129.35 42.90 128.87 40.48 128.36 38.07 C 132.07 37.54 135.71 36.61 139.19 35.21 C 144.30 36.92 149.74 37.80 154.52 40.43 C 158.87 40.81 163.04 41.99 166.96 43.96 C 166.43 46.40 166.11 48.88 165.86 51.36 C 170.20 52.06 174.74 51.74 178.72 49.76 C 179.03 51.10 179.35 52.44 179.67 53.78 C 180.60 52.64 181.52 51.49 182.47 50.36 C 183.86 50.51 185.26 50.84 186.67 50.75 C 188.76 49.54 190.63 48.00 192.73 46.81 C 195.32 45.10 198.72 47.02 201.33 45.36 C 205.45 43.25 209.32 40.67 213.29 38.29 C 216.91 35.46 219.71 31.74 223.16 28.70 C 222.18 26.99 221.23 25.25 220.44 23.44 C 226.21 22.75 232.02 23.10 237.80 22.83 C 237.90 23.58 238.08 25.09 238.17 25.84 C 240.08 26.18 241.97 26.74 243.92 26.93 C 245.84 26.52 247.35 25.15 248.90 24.02 C 246.92 21.58 244.78 19.28 242.75 16.88 C 243.22 15.63 243.73 14.40 244.09 13.12 C 243.31 12.27 242.51 11.45 241.68 10.67 C 246.56 8.97 251.03 6.12 256.17 5.16 C 258.74 4.77 261.31 4.38 263.87 3.89 C 264.45 4.67 265.03 5.44 265.62 6.22 C 264.31 8.70 263.44 11.39 263.78 14.24 C 268.89 11.74 274.15 14.40 279.42 14.39 C 279.84 13.16 279.66 11.53 280.90 10.74 C 285.16 7.60 288.87 3.79 292.55 0.00 Z" />
<path fill="#ffffff" d=" M 295.33 0.00 L 516.00 0.00 L 516.00 203.40 C 513.70 200.00 510.13 197.83 507.20 195.05 C 510.75 191.97 510.43 187.04 511.28 182.81 C 509.60 182.15 507.92 181.52 506.25 180.89 C 506.35 179.28 506.52 177.66 506.77 176.06 C 501.45 174.11 495.85 172.58 490.18 173.80 C 487.75 171.49 485.90 168.63 483.96 165.92 C 483.92 163.30 487.25 162.50 488.93 160.97 C 492.72 159.62 494.20 155.73 496.03 152.50 C 491.96 151.95 487.92 151.08 483.81 150.85 C 483.64 149.62 483.74 148.23 482.72 147.34 C 479.47 143.40 476.43 139.30 473.89 134.87 C 471.01 135.35 468.08 135.65 465.20 135.02 C 464.75 133.71 464.39 132.37 463.81 131.12 C 460.97 129.54 457.57 130.17 454.55 129.19 C 451.55 128.08 448.47 130.57 445.52 129.62 C 441.83 126.89 437.11 128.93 433.14 129.95 C 431.49 128.44 429.90 126.81 427.96 125.68 C 424.74 127.81 421.48 129.88 417.48 130.08 C 419.50 127.46 418.45 124.27 418.43 121.29 C 416.56 120.60 414.62 120.09 412.82 119.23 C 410.88 116.78 409.74 111.96 413.45 110.52 C 416.20 109.55 417.74 107.07 418.63 104.43 C 419.49 104.55 420.35 104.67 421.23 104.78 C 422.20 101.33 424.42 98.49 426.37 95.55 C 425.04 95.23 423.72 94.93 422.41 94.64 C 422.49 96.11 422.58 97.60 422.41 99.07 C 421.62 98.11 420.82 97.16 420.05 96.18 C 422.74 92.83 427.40 90.39 427.56 85.64 C 427.93 83.36 426.65 81.03 427.57 78.79 C 428.74 78.36 429.94 77.97 431.15 77.62 C 431.26 75.75 431.34 73.88 431.29 72.01 C 432.52 71.97 433.74 71.93 434.98 71.89 C 435.07 71.17 435.24 69.72 435.33 69.00 C 434.09 68.47 432.85 67.95 431.62 67.42 C 433.96 66.09 436.36 64.85 438.57 63.31 C 436.90 61.50 435.22 59.71 433.60 57.87 C 431.84 58.68 430.09 59.47 428.34 60.28 C 428.03 58.76 427.73 57.24 427.41 55.73 C 422.39 53.23 416.69 57.30 411.86 54.28 C 408.11 51.25 403.11 50.89 398.84 48.96 C 397.89 46.70 398.52 44.23 398.24 41.88 C 395.10 39.23 392.48 35.74 388.28 34.79 C 385.87 38.25 381.14 38.41 378.65 41.87 C 375.88 41.06 373.06 40.40 370.26 39.73 C 369.45 40.53 368.60 41.27 367.69 41.95 C 363.36 42.27 359.04 41.23 354.71 41.91 C 355.58 39.58 356.57 37.30 357.39 34.96 C 355.25 33.91 353.22 32.57 350.90 31.98 C 348.81 31.66 347.08 33.08 345.30 33.89 C 344.34 33.55 343.38 33.21 342.42 32.88 C 343.34 26.98 338.07 23.52 334.33 20.03 C 335.73 17.86 337.22 15.74 338.71 13.63 C 337.74 11.19 336.72 8.77 335.57 6.42 C 332.70 6.23 329.98 5.38 328.74 2.55 C 327.33 3.99 325.01 4.97 324.69 7.14 C 324.21 8.94 324.41 11.37 322.40 12.26 C 319.49 13.93 317.39 16.54 314.91 18.72 C 313.48 17.96 312.28 16.80 310.78 16.20 C 307.90 15.90 304.97 15.89 302.20 14.94 C 302.10 13.56 301.99 12.17 301.89 10.78 C 302.75 10.22 303.62 9.66 304.49 9.08 C 304.25 7.57 304.06 6.05 303.91 4.53 C 301.11 2.89 298.44 1.00 295.33 0.00 Z" />
<path fill="#fef79c" d=" M 281.70 11.78 C 286.61 9.35 289.58 4.47 293.95 1.35 C 297.05 2.19 299.89 3.87 302.17 6.13 C 301.49 9.09 300.53 11.98 300.09 14.99 C 301.43 15.99 302.69 17.15 304.24 17.82 C 306.09 17.98 307.94 17.73 309.80 17.78 C 311.47 18.48 312.22 20.36 313.46 21.59 C 317.27 19.44 319.67 15.61 323.34 13.26 C 326.03 11.56 326.74 8.43 326.97 5.48 C 329.11 6.41 331.40 6.87 333.67 7.37 C 335.22 8.99 336.03 11.17 337.24 13.04 C 335.49 15.41 333.95 17.91 332.39 20.40 C 335.56 22.98 338.92 25.62 340.74 29.37 C 341.08 31.09 341.22 32.85 341.47 34.59 C 343.96 34.97 346.48 34.83 348.83 33.84 C 351.04 32.74 353.14 34.40 355.18 35.13 C 354.49 38.01 353.38 41.02 354.45 43.96 C 359.45 42.25 364.73 44.54 369.72 42.70 C 372.97 41.35 376.33 42.89 379.64 42.93 C 382.99 40.72 386.30 38.37 389.99 36.75 C 392.48 38.41 394.55 40.62 396.94 42.42 C 396.99 44.89 397.05 47.37 397.18 49.84 C 400.93 51.53 405.21 52.06 408.71 54.27 C 412.53 58.55 419.02 57.25 423.97 55.98 C 424.89 58.24 425.84 60.50 426.92 62.70 C 429.12 61.80 431.36 61.01 433.60 60.23 C 434.21 61.14 434.82 62.06 435.44 62.97 C 434.00 64.06 432.32 64.94 431.28 66.46 C 430.26 69.96 429.44 73.54 429.64 77.21 C 428.71 76.78 427.78 76.35 426.86 75.91 C 425.91 78.26 424.98 80.61 423.95 82.93 C 424.92 83.36 425.90 83.79 426.89 84.22 C 425.55 86.44 424.78 89.03 422.95 90.91 C 421.65 92.44 419.73 93.94 420.05 96.18 C 420.82 97.16 421.62 98.11 422.41 99.07 C 418.70 103.20 415.37 108.07 410.07 110.28 C 409.92 112.09 409.76 113.90 409.60 115.71 C 405.09 116.07 399.91 118.17 395.87 115.13 C 392.24 112.52 387.63 112.12 383.68 110.22 C 382.01 108.21 382.78 105.49 382.84 103.14 C 379.55 100.90 377.48 96.56 373.11 96.36 C 369.74 98.56 366.09 100.38 363.08 103.08 C 360.50 102.48 357.92 101.19 355.26 101.35 C 351.19 103.32 346.50 104.37 342.09 103.00 C 338.81 103.26 335.55 102.99 332.29 102.63 C 332.01 101.55 331.73 100.47 331.45 99.40 C 333.90 97.52 336.95 95.95 337.56 92.62 C 340.05 89.38 343.48 86.74 347.15 84.87 C 344.95 83.37 342.98 81.55 340.66 80.22 C 338.68 79.90 336.66 79.99 334.67 79.95 C 334.76 81.66 334.88 83.37 334.98 85.08 C 331.98 84.62 328.00 85.81 326.54 82.32 C 324.24 83.01 322.06 82.15 319.93 81.36 C 313.40 82.00 307.88 86.02 301.45 87.25 C 299.97 85.45 298.47 83.67 297.08 81.81 C 292.92 84.62 287.56 85.18 284.06 89.03 C 282.23 88.58 280.39 88.14 278.53 87.81 C 276.81 91.58 277.83 95.57 278.22 99.49 C 275.49 99.29 272.89 98.46 270.31 97.63 C 269.52 100.89 268.69 104.13 268.00 107.41 C 266.69 110.39 264.67 113.00 262.88 115.71 C 264.36 115.86 265.85 116.01 267.34 116.16 C 268.02 120.81 264.60 124.23 261.81 127.45 C 262.90 127.93 263.99 128.41 265.07 128.91 C 265.03 130.44 265.00 131.97 264.99 133.51 C 263.59 134.21 262.22 134.94 260.88 135.72 C 260.17 134.28 259.53 132.81 258.90 131.33 C 256.07 131.88 253.11 132.12 250.66 133.78 C 247.28 136.20 241.50 134.42 239.93 139.10 C 239.22 137.90 238.55 136.68 237.73 135.55 C 234.45 135.63 233.49 139.64 231.83 141.89 C 229.54 141.99 227.27 142.28 224.99 142.29 C 220.51 141.06 216.29 138.93 212.90 135.72 C 210.19 138.25 206.75 139.28 203.15 139.68 C 198.87 141.42 194.30 142.07 189.91 143.42 C 186.29 143.13 181.75 143.05 179.57 139.64 C 179.84 136.66 179.34 131.17 175.06 132.32 C 171.03 133.40 166.87 133.09 162.86 132.10 C 161.57 130.94 161.13 129.17 160.40 127.66 C 156.75 128.26 153.06 127.56 149.39 127.97 C 147.61 131.23 145.16 134.05 143.22 137.22 C 142.34 136.57 141.44 135.95 140.52 135.37 C 138.11 135.31 135.37 136.65 133.39 134.66 C 132.56 132.90 131.99 131.03 131.35 129.19 C 129.54 129.66 127.75 130.29 125.89 130.51 C 123.94 130.28 122.12 129.46 120.18 129.22 C 114.72 131.65 110.45 136.04 105.00 138.51 C 104.01 135.82 102.67 133.30 101.02 130.97 C 99.08 131.19 97.14 131.63 95.17 131.55 C 93.35 130.92 91.68 129.91 89.86 129.28 C 87.53 129.34 85.27 129.98 82.96 130.24 C 82.03 128.60 81.16 126.93 80.38 125.22 C 78.34 125.01 76.31 124.75 74.30 124.33 C 73.27 125.55 72.19 126.74 71.09 127.91 L 70.34 127.89 C 67.83 126.78 65.01 126.83 62.46 125.85 C 62.02 124.35 61.71 122.80 61.24 121.30 C 58.20 120.93 55.50 122.72 52.69 123.55 C 51.13 123.63 49.61 123.20 48.08 123.01 C 48.64 120.79 49.70 118.07 47.43 116.41 C 44.82 115.16 41.88 116.66 39.13 116.58 C 36.83 116.35 34.52 116.12 32.24 115.73 C 30.57 114.31 30.43 112.01 29.96 110.03 C 28.29 110.76 26.62 111.49 24.94 112.22 C 24.38 111.41 23.82 110.60 23.25 109.79 C 21.06 110.96 18.25 111.55 17.00 113.94 C 15.44 115.95 14.86 118.60 12.94 120.35 C 11.76 118.96 11.06 117.26 10.36 115.59 C 7.80 110.85 9.56 105.31 8.39 100.25 C 9.77 99.22 11.12 98.15 12.45 97.06 C 10.61 93.26 9.61 88.31 5.11 86.80 C 4.91 81.59 4.17 76.35 2.37 71.43 C 6.50 69.59 10.61 67.69 14.65 65.64 C 27.05 61.73 38.21 54.84 49.45 48.44 C 56.85 44.54 64.47 41.03 71.47 36.44 C 74.41 34.45 77.92 33.64 81.04 31.99 C 81.23 31.95 81.61 31.86 81.81 31.82 C 91.51 31.52 100.27 26.82 109.69 25.06 C 110.21 27.05 110.83 29.03 111.49 30.98 C 110.29 31.55 109.08 32.10 107.87 32.66 C 109.28 36.62 110.28 40.80 112.53 44.39 C 118.36 48.07 125.54 47.31 132.05 46.47 C 131.58 44.38 131.11 42.30 130.71 40.19 C 134.13 39.31 137.60 38.62 140.90 37.34 C 145.12 38.50 149.31 39.75 153.30 41.55 C 157.19 42.04 160.91 43.22 164.59 44.52 C 164.33 47.09 163.65 49.82 164.63 52.32 C 167.68 54.29 171.38 52.60 174.72 53.11 C 176.19 53.64 177.51 54.55 179.02 55.01 C 183.82 53.46 188.79 52.01 192.81 48.82 C 195.21 46.86 198.58 48.66 201.17 47.23 C 205.43 44.86 209.55 42.24 213.71 39.71 C 216.84 37.90 218.73 34.72 221.37 32.35 C 222.32 31.33 223.61 30.51 224.10 29.15 C 225.16 27.65 223.63 26.21 223.12 24.82 C 227.68 24.43 232.25 24.17 236.82 23.94 C 236.96 25.23 237.10 26.51 237.25 27.80 C 242.02 28.27 247.88 28.74 250.84 24.10 C 249.01 21.51 246.76 19.26 244.60 16.96 C 245.55 14.81 246.16 12.52 246.50 10.19 C 252.11 7.58 258.02 5.34 264.33 5.69 C 262.04 8.82 261.50 12.54 262.09 16.31 C 264.34 15.73 266.50 14.72 268.82 14.38 C 273.05 14.79 277.19 16.25 281.50 15.74 C 281.58 14.42 281.64 13.10 281.70 11.78 Z" />
<path fill="#070708" d=" M 69.29 36.28 C 72.69 33.82 76.73 31.82 81.04 31.99 C 77.92 33.64 74.41 34.45 71.47 36.44 C 64.47 41.03 56.85 44.54 49.45 48.44 C 38.21 54.84 27.05 61.73 14.65 65.64 C 10.61 67.69 6.50 69.59 2.37 71.43 C 4.17 76.35 4.91 81.59 5.11 86.80 C 9.61 88.31 10.61 93.26 12.45 97.06 C 11.12 98.15 9.77 99.22 8.39 100.25 C 9.56 105.31 7.80 110.85 10.36 115.59 C 11.06 117.26 11.76 118.96 12.94 120.35 C 14.86 118.60 15.44 115.95 17.00 113.94 C 18.25 111.55 21.06 110.96 23.25 109.79 C 23.82 110.60 24.38 111.41 24.94 112.22 C 26.62 111.49 28.29 110.76 29.96 110.03 C 30.43 112.01 30.57 114.31 32.24 115.73 C 34.52 116.12 36.83 116.35 39.13 116.58 C 41.88 116.66 44.82 115.16 47.43 116.41 C 49.70 118.07 48.64 120.79 48.08 123.01 C 49.61 123.20 51.13 123.63 52.69 123.55 C 55.50 122.72 58.20 120.93 61.24 121.30 C 59.11 122.80 56.60 123.56 54.15 124.35 C 54.40 125.57 54.67 126.79 54.95 128.01 C 52.56 125.63 49.38 124.54 46.12 123.97 C 46.23 121.60 46.30 119.23 46.25 116.86 C 40.02 119.49 32.50 118.20 27.62 113.51 C 25.15 113.35 22.67 113.28 20.19 113.26 C 18.38 114.61 17.19 116.63 15.72 118.32 C 18.12 119.52 20.79 119.76 23.42 120.01 C 23.65 124.68 28.01 126.96 30.25 130.58 C 31.65 132.70 32.32 135.49 34.93 136.50 C 35.49 136.89 36.60 137.67 37.15 138.06 C 34.88 137.90 31.94 137.59 30.88 135.23 C 29.00 131.58 26.33 128.46 23.53 125.50 C 22.22 124.36 22.04 122.58 21.57 121.02 C 18.09 120.86 14.60 120.59 11.13 121.05 C 9.90 118.23 8.38 115.51 5.85 113.64 C 8.30 109.87 7.74 104.50 4.92 101.07 C 6.87 99.51 8.79 97.92 10.75 96.38 C 8.91 93.79 8.14 90.39 5.39 88.54 C 3.01 87.14 3.91 84.13 3.20 81.90 C 2.20 78.32 2.07 74.44 0.00 71.23 L 0.00 70.89 C 6.25 68.76 11.74 64.81 18.21 63.27 C 27.05 59.40 35.62 54.95 43.97 50.10 C 51.91 44.61 61.28 41.68 69.29 36.28 Z" />
<path fill="#bbbdae" d=" M 432.43 69.96 C 435.50 68.48 432.50 73.26 432.43 69.96 Z" />
<path fill="#ffffff" d=" M 0.00 71.23 C 2.07 74.44 2.20 78.32 3.20 81.90 C 3.91 84.13 3.01 87.14 5.39 88.54 C 8.14 90.39 8.91 93.79 10.75 96.38 C 8.79 97.92 6.87 99.51 4.92 101.07 C 7.74 104.50 8.30 109.87 5.85 113.64 C 8.38 115.51 9.90 118.23 11.13 121.05 C 14.60 120.59 18.09 120.86 21.57 121.02 C 22.04 122.58 22.22 124.36 23.53 125.50 C 26.33 128.46 29.00 131.58 30.88 135.23 C 31.94 137.59 34.88 137.90 37.15 138.06 C 36.60 137.67 35.49 136.89 34.93 136.50 C 35.38 136.68 36.27 137.04 36.72 137.22 C 40.26 138.84 43.49 141.06 46.97 142.83 C 50.34 140.34 51.84 136.47 52.58 132.49 C 54.44 132.32 56.33 132.07 57.95 131.08 C 61.70 128.90 66.04 127.99 70.34 127.89 L 71.09 127.91 C 73.62 127.84 76.01 126.90 78.44 126.33 C 80.22 128.61 82.14 130.80 83.64 133.28 C 84.61 135.41 85.16 137.71 86.14 139.84 C 88.48 139.98 90.83 140.17 93.12 140.76 C 92.20 144.36 90.01 147.96 91.18 151.76 C 91.99 155.36 95.46 158.01 95.05 161.92 C 95.25 165.20 94.30 168.85 96.23 171.79 C 100.12 174.66 104.85 176.06 108.98 178.56 C 112.94 177.35 117.87 177.06 120.45 173.42 C 121.89 171.03 124.82 172.49 126.98 172.65 C 125.47 174.81 123.89 177.06 124.33 179.85 C 129.49 177.62 135.11 177.94 140.42 179.45 C 142.41 182.21 146.04 184.01 146.60 187.60 C 147.49 191.55 148.74 196.22 145.40 199.43 C 147.08 202.34 147.31 205.87 149.24 208.66 C 150.37 210.05 151.74 211.23 153.01 212.50 C 154.26 211.88 155.51 211.27 156.77 210.67 C 157.03 208.47 157.40 206.29 157.89 204.14 C 162.45 202.51 166.82 205.37 171.38 204.05 C 174.27 205.41 177.00 209.41 180.49 207.53 C 184.97 204.85 190.31 205.40 195.11 203.67 C 199.18 207.04 202.77 211.06 207.74 213.14 C 207.95 215.80 208.57 218.41 209.41 220.95 C 211.47 220.89 213.52 220.73 215.56 220.41 C 215.05 218.95 214.52 217.50 213.96 216.07 C 216.48 217.45 219.20 218.47 221.48 220.27 C 217.95 222.39 215.02 225.34 211.53 227.50 C 211.90 229.67 211.97 231.89 211.60 234.07 C 211.51 237.19 208.68 239.26 207.58 242.04 C 210.87 243.63 214.38 242.56 217.74 241.95 C 217.89 243.83 217.87 245.73 218.25 247.59 C 219.60 249.37 221.17 250.97 222.51 252.76 C 220.27 254.00 218.04 255.24 215.72 256.32 L 214.92 256.25 C 211.60 255.73 210.49 260.09 208.48 262.02 C 209.73 263.35 211.02 264.65 212.33 265.93 C 211.46 267.02 210.60 268.12 209.75 269.22 C 212.81 270.05 216.69 269.93 218.10 273.36 C 224.89 273.21 232.21 269.74 238.58 273.38 C 242.55 274.54 246.74 274.86 250.69 276.16 C 252.01 276.73 253.32 275.97 254.61 275.69 C 256.86 274.95 259.28 275.12 261.58 274.59 C 264.80 272.44 267.95 270.15 271.37 268.29 C 276.40 268.19 281.15 266.34 286.17 266.05 C 284.48 263.33 284.90 260.08 286.43 257.41 C 287.95 255.27 284.65 253.49 285.26 251.33 C 287.26 248.48 290.71 247.45 293.49 245.62 C 294.23 244.29 294.80 242.87 295.55 241.55 C 297.52 240.31 299.55 239.14 301.70 238.25 C 304.47 238.36 307.18 239.10 309.93 239.47 C 309.03 241.65 308.15 243.83 307.62 246.13 C 306.50 246.69 305.34 247.22 304.39 248.06 C 304.31 249.42 304.45 250.78 304.56 252.14 C 303.29 252.64 302.04 253.16 300.80 253.71 C 301.78 255.01 302.76 256.32 303.81 257.58 C 300.09 260.38 302.79 266.61 297.91 268.25 C 297.91 269.80 297.92 271.36 297.94 272.92 C 300.43 273.55 302.97 274.00 305.45 274.65 C 307.26 276.38 308.80 278.39 310.59 280.16 C 309.17 283.13 308.53 286.65 305.75 288.74 C 306.69 291.19 307.92 293.57 308.44 296.17 C 308.13 298.19 307.27 300.08 306.62 302.01 C 309.40 302.30 312.17 302.72 314.96 302.92 C 318.69 303.21 321.79 300.21 325.48 300.38 C 329.02 305.06 334.89 307.14 340.60 307.38 C 342.17 310.20 343.40 313.19 344.28 316.30 C 345.90 315.99 347.50 315.64 349.10 315.22 C 348.90 316.50 348.70 317.78 348.51 319.06 C 353.70 318.29 358.85 321.65 363.81 319.20 C 366.37 320.80 368.85 322.54 371.35 324.25 C 370.09 325.99 368.87 327.74 367.73 329.56 C 368.34 330.82 368.96 332.10 369.57 333.38 C 371.81 332.56 374.06 331.68 375.93 330.14 C 378.79 331.44 381.97 332.48 384.17 334.86 C 386.69 338.50 386.84 343.51 390.60 346.29 C 389.63 347.14 388.66 347.98 387.71 348.84 C 388.87 350.19 390.03 351.57 391.11 353.00 L 0.00 353.00 L 0.00 71.23 Z" />
<path fill="#05090b" d=" M 334.67 79.95 C 336.66 79.99 338.68 79.90 340.66 80.22 C 342.98 81.55 344.95 83.37 347.15 84.87 C 343.48 86.74 340.05 89.38 337.56 92.62 C 336.95 95.95 333.90 97.52 331.45 99.40 C 331.73 100.47 332.01 101.55 332.29 102.63 C 335.55 102.99 338.81 103.26 342.09 103.00 C 346.50 104.37 351.19 103.32 355.26 101.35 C 357.92 101.19 360.50 102.48 363.08 103.08 C 366.09 100.38 369.74 98.56 373.11 96.36 C 377.48 96.56 379.55 100.90 382.84 103.14 C 382.78 105.49 382.01 108.21 383.68 110.22 C 387.63 112.12 392.24 112.52 395.87 115.13 C 399.91 118.17 405.09 116.07 409.60 115.71 C 409.76 113.90 409.92 112.09 410.07 110.28 C 415.37 108.07 418.70 103.20 422.41 99.07 C 422.58 97.60 422.49 96.11 422.41 94.64 C 423.72 94.93 425.04 95.23 426.37 95.55 C 424.42 98.49 422.20 101.33 421.23 104.78 C 420.35 104.67 419.49 104.55 418.63 104.43 C 417.74 107.07 416.20 109.55 413.45 110.52 C 409.74 111.96 410.88 116.78 412.82 119.23 C 414.62 120.09 416.56 120.60 418.43 121.29 C 418.45 124.27 419.50 127.46 417.48 130.08 C 421.48 129.88 424.74 127.81 427.96 125.68 C 429.90 126.81 431.49 128.44 433.14 129.95 C 437.11 128.93 441.83 126.89 445.52 129.62 C 448.47 130.57 451.55 128.08 454.55 129.19 C 457.57 130.17 460.97 129.54 463.81 131.12 C 464.39 132.37 464.75 133.71 465.20 135.02 C 468.08 135.65 471.01 135.35 473.89 134.87 C 476.43 139.30 479.47 143.40 482.72 147.34 C 483.74 148.23 483.64 149.62 483.81 150.85 C 487.92 151.08 491.96 151.95 496.03 152.50 C 494.20 155.73 492.72 159.62 488.93 160.97 C 487.25 162.50 483.92 163.30 483.96 165.92 C 485.90 168.63 487.75 171.49 490.18 173.80 C 495.85 172.58 501.45 174.11 506.77 176.06 C 506.52 177.66 506.35 179.28 506.25 180.89 C 507.92 181.52 509.60 182.15 511.28 182.81 C 510.43 187.04 510.75 191.97 507.20 195.05 C 510.13 197.83 513.70 200.00 516.00 203.40 L 516.00 204.28 C 513.61 205.78 511.15 207.17 509.10 209.12 C 506.93 208.17 503.84 205.13 501.86 207.87 C 499.61 210.19 501.37 214.64 498.10 216.03 C 495.47 217.23 492.14 216.77 489.96 218.92 C 488.30 220.38 486.58 221.76 484.70 222.92 C 486.29 225.41 487.22 228.18 487.91 231.03 C 485.73 231.81 483.54 232.53 481.34 233.22 C 481.70 234.73 482.14 236.24 482.32 237.79 C 481.63 238.93 480.70 239.89 479.86 240.91 C 478.36 240.32 476.87 239.74 475.38 239.16 C 475.69 237.05 475.75 234.90 475.43 232.79 C 473.45 234.11 471.57 235.58 469.61 236.94 C 467.13 235.91 464.49 234.79 463.41 232.12 C 461.33 232.63 459.21 232.99 457.08 233.21 C 457.13 235.66 457.06 238.12 456.99 240.57 C 453.98 241.10 451.10 242.10 448.26 243.20 C 447.69 245.60 447.11 248.01 446.74 250.46 C 445.39 250.98 444.05 251.53 442.73 252.11 C 443.48 253.33 444.25 254.54 445.01 255.76 C 443.27 258.42 440.93 260.59 438.09 262.03 C 439.23 263.34 440.46 264.59 441.43 266.04 C 438.91 268.62 435.97 271.11 432.19 271.23 C 432.09 275.11 431.35 279.36 427.59 281.35 C 429.78 282.69 433.37 282.95 434.16 285.73 C 432.53 287.31 430.68 288.77 430.00 291.05 C 428.57 293.48 429.97 296.29 430.06 298.89 C 431.39 298.82 432.72 298.79 434.06 298.79 C 436.32 301.33 437.97 304.35 440.15 306.96 C 441.26 308.13 440.63 309.87 440.77 311.30 C 442.37 311.20 443.98 311.00 445.59 311.14 C 446.76 312.13 447.69 313.36 448.69 314.53 C 447.27 316.22 445.83 317.89 444.50 319.66 C 446.94 320.35 449.41 320.94 451.92 321.37 C 451.42 326.89 447.78 331.43 443.69 334.89 C 444.52 334.88 446.18 334.86 447.01 334.85 C 447.05 335.66 447.12 337.29 447.15 338.10 C 445.08 339.67 443.58 342.00 441.15 343.05 C 438.05 344.72 434.79 342.27 431.98 341.04 C 431.66 342.40 431.34 343.76 431.01 345.12 C 426.25 345.65 421.63 344.73 417.10 343.37 C 413.13 344.02 412.81 348.58 411.56 351.60 C 409.15 350.20 406.62 346.73 403.53 348.34 C 400.26 350.54 396.40 351.44 392.83 353.00 L 391.11 353.00 C 390.03 351.57 388.87 350.19 387.71 348.84 C 388.66 347.98 389.63 347.14 390.60 346.29 C 386.84 343.51 386.69 338.50 384.17 334.86 C 381.97 332.48 378.79 331.44 375.93 330.14 C 374.06 331.68 371.81 332.56 369.57 333.38 C 368.96 332.10 368.34 330.82 367.73 329.56 C 368.87 327.74 370.09 325.99 371.35 324.25 C 368.85 322.54 366.37 320.80 363.81 319.20 C 358.85 321.65 353.70 318.29 348.51 319.06 C 348.70 317.78 348.90 316.50 349.10 315.22 C 347.50 315.64 345.90 315.99 344.28 316.30 C 343.40 313.19 342.17 310.20 340.60 307.38 C 334.89 307.14 329.02 305.06 325.48 300.38 C 321.79 300.21 318.69 303.21 314.96 302.92 C 312.17 302.72 309.40 302.30 306.62 302.01 C 307.27 300.08 308.13 298.19 308.44 296.17 C 307.92 293.57 306.69 291.19 305.75 288.74 C 308.53 286.65 309.17 283.13 310.59 280.16 C 308.80 278.39 307.26 276.38 305.45 274.65 C 302.97 274.00 300.43 273.55 297.94 272.92 C 297.92 271.36 297.91 269.80 297.91 268.25 C 302.79 266.61 300.09 260.38 303.81 257.58 C 302.76 256.32 301.78 255.01 300.80 253.71 C 302.04 253.16 303.29 252.64 304.56 252.14 C 304.45 250.78 304.31 249.42 304.39 248.06 C 305.34 247.22 306.50 246.69 307.62 246.13 C 308.15 243.83 309.03 241.65 309.93 239.47 C 307.18 239.10 304.47 238.36 301.70 238.25 C 299.55 239.14 297.52 240.31 295.55 241.55 C 294.80 242.87 294.23 244.29 293.49 245.62 C 290.71 247.45 287.26 248.48 285.26 251.33 C 284.65 253.49 287.95 255.27 286.43 257.41 C 284.90 260.08 284.48 263.33 286.17 266.05 C 281.15 266.34 276.40 268.19 271.37 268.29 C 267.95 270.15 264.80 272.44 261.58 274.59 C 259.28 275.12 256.86 274.95 254.61 275.69 C 253.32 275.97 252.01 276.73 250.69 276.16 C 246.74 274.86 242.55 274.54 238.58 273.38 C 232.21 269.74 224.89 273.21 218.10 273.36 C 216.69 269.93 212.81 270.05 209.75 269.22 C 210.60 268.12 211.46 267.02 212.33 265.93 C 211.02 264.65 209.73 263.35 208.48 262.02 C 210.49 260.09 211.60 255.73 214.92 256.25 C 213.49 258.01 212.09 259.79 210.76 261.63 C 213.62 265.17 215.66 269.68 220.05 271.64 C 225.63 271.93 231.35 268.86 236.79 271.20 C 240.64 272.83 244.87 273.03 248.89 274.10 C 252.74 275.30 256.75 274.05 260.55 273.21 C 263.85 271.32 266.79 268.72 270.37 267.37 C 274.87 266.71 279.30 265.71 283.75 264.76 C 283.79 260.94 285.64 256.60 282.68 253.41 C 283.61 251.77 284.43 250.05 285.59 248.56 C 287.78 246.74 290.72 245.87 292.44 243.48 C 295.16 239.93 299.22 237.88 302.57 235.01 C 304.31 236.28 306.31 237.04 308.44 237.35 C 310.82 237.59 312.31 239.67 314.12 241.00 C 312.58 241.98 311.03 242.96 309.49 243.93 C 309.94 245.75 310.39 247.57 310.83 249.39 C 307.40 249.52 305.65 252.35 303.99 254.93 C 304.75 255.73 305.52 256.53 306.29 257.34 C 303.17 261.78 302.43 267.46 298.58 271.48 C 301.18 272.18 303.85 272.68 306.40 273.57 C 308.69 275.80 311.45 277.89 312.66 280.95 C 311.73 284.23 309.53 286.94 307.87 289.86 C 309.08 291.77 310.56 293.74 310.54 296.12 C 310.25 297.53 309.54 298.80 309.02 300.13 C 311.59 300.66 314.30 302.17 316.90 301.00 C 319.30 299.90 322.12 298.84 323.30 296.27 C 324.00 294.54 324.28 292.68 324.99 290.96 C 327.63 288.19 333.12 287.34 332.82 282.67 C 335.39 280.98 337.92 279.23 340.59 277.70 C 339.81 273.92 338.10 270.34 334.53 268.46 C 332.28 268.32 330.05 268.79 327.81 268.93 C 327.39 264.99 324.96 261.82 322.18 259.18 C 324.46 258.06 326.85 256.72 329.47 257.56 C 328.05 258.33 326.66 259.16 325.27 260.00 C 327.06 262.40 328.75 265.03 328.94 268.11 C 331.25 267.75 334.04 265.75 336.10 267.72 C 338.03 269.58 340.81 271.06 341.09 274.01 C 341.42 275.91 342.60 277.44 343.77 278.91 C 341.93 279.26 339.78 279.00 338.28 280.33 C 335.99 282.10 335.65 285.45 333.18 287.06 C 330.94 288.86 327.85 289.59 326.04 291.89 C 325.47 294.08 325.38 296.38 324.51 298.50 C 326.73 299.47 328.37 301.26 330.20 302.80 C 332.48 304.29 335.25 304.81 337.89 305.30 C 342.24 305.41 344.09 310.24 345.43 313.70 C 346.93 313.75 348.49 313.61 349.94 314.15 C 350.57 315.24 350.92 316.47 351.35 317.66 C 355.74 318.34 360.14 317.95 364.52 317.50 C 367.66 319.84 370.68 322.35 373.84 324.67 C 371.81 326.48 370.13 328.67 369.48 331.36 C 371.80 331.23 373.53 329.88 374.81 328.03 C 377.78 329.40 380.98 330.38 383.67 332.31 C 386.81 334.39 387.30 338.75 390.75 340.53 C 390.13 341.27 389.50 342.01 388.88 342.76 C 389.97 343.57 391.06 344.38 392.16 345.19 C 391.82 346.89 391.46 348.59 391.12 350.29 C 393.29 350.20 395.48 350.16 397.63 349.76 C 400.02 349.33 401.50 347.25 403.20 345.73 C 405.64 346.35 408.05 347.08 410.44 347.89 C 411.81 344.95 414.05 341.12 417.90 341.90 C 421.85 342.94 425.86 343.49 429.93 343.81 C 430.04 342.40 430.16 340.99 430.29 339.59 C 433.30 339.84 435.96 341.34 438.85 342.03 C 441.11 340.97 442.99 339.28 445.03 337.86 C 443.90 336.94 442.74 336.05 441.74 335.01 C 445.00 331.22 448.11 327.24 450.27 322.69 C 448.04 321.89 445.82 321.11 443.58 320.38 C 444.05 317.95 445.24 315.80 446.78 313.89 C 444.11 313.05 441.32 312.77 438.54 312.61 C 439.28 308.16 436.53 304.30 433.70 301.17 C 432.04 300.49 430.19 300.66 428.45 300.50 C 427.35 295.22 425.35 287.75 430.98 284.33 C 428.96 283.63 426.99 282.84 425.04 282.01 C 426.48 280.45 428.08 279.01 429.22 277.21 C 430.22 275.00 430.36 272.53 431.21 270.27 C 433.56 268.81 436.20 267.92 438.71 266.79 C 437.88 264.78 437.17 262.73 436.62 260.64 C 438.01 259.94 439.45 259.31 440.79 258.52 C 442.93 256.32 440.30 252.81 442.65 250.74 C 444.47 248.71 445.59 246.22 446.79 243.81 C 448.08 240.63 452.07 240.55 454.86 239.47 C 454.92 237.01 455.01 234.55 455.10 232.10 C 458.26 231.48 461.43 230.89 464.54 230.01 C 465.39 232.43 466.92 234.44 469.27 235.54 C 470.06 234.43 470.87 233.33 471.71 232.26 C 473.40 232.00 475.12 232.08 476.83 232.08 C 477.47 234.25 477.97 236.46 478.44 238.68 C 478.98 238.63 480.07 238.54 480.61 238.50 C 480.37 236.09 480.11 233.68 479.89 231.27 C 481.74 230.71 483.59 230.15 485.46 229.60 C 485.24 227.04 483.75 225.08 481.77 223.58 C 485.20 220.74 488.19 216.88 492.73 215.82 C 494.34 215.34 495.98 214.97 497.63 214.60 C 497.92 211.15 499.32 207.93 501.47 205.24 C 503.42 204.59 505.45 205.30 507.41 205.58 C 509.85 206.14 512.24 204.98 514.61 204.53 C 512.26 201.48 509.34 198.94 506.45 196.44 C 499.54 193.82 492.32 196.83 485.32 197.30 C 485.17 196.49 484.86 194.86 484.71 194.04 C 482.42 193.75 480.13 193.47 477.85 193.10 C 478.65 192.14 479.46 191.19 480.27 190.23 C 479.05 188.92 477.73 187.64 476.96 186.00 C 477.88 184.04 479.26 182.32 480.82 180.84 C 483.84 179.44 487.03 178.43 490.10 177.15 C 486.83 173.13 482.91 169.46 481.32 164.37 C 485.96 161.05 490.67 157.75 494.45 153.41 C 490.66 153.26 486.90 152.33 483.12 152.75 C 480.28 153.70 478.11 156.15 475.11 156.74 C 473.45 155.84 472.06 154.55 470.47 153.56 C 467.93 152.79 465.20 153.15 462.64 152.48 C 459.53 150.16 457.25 146.18 453.03 145.83 C 450.47 146.03 448.62 148.49 446.01 148.54 C 443.84 148.62 441.71 148.17 439.56 147.99 C 439.02 148.97 438.48 149.95 437.94 150.92 C 438.84 152.26 439.74 153.60 440.60 154.97 C 437.48 157.14 433.21 157.93 430.03 155.44 C 425.20 159.78 418.98 162.07 413.58 165.61 C 414.61 167.98 415.64 170.38 416.02 172.95 C 412.76 175.38 409.24 177.46 406.19 180.18 C 404.28 182.06 401.57 181.83 399.12 181.63 C 398.33 184.01 396.43 185.34 394.13 186.08 C 394.82 186.99 395.53 187.90 396.23 188.82 C 393.69 190.57 390.97 192.02 388.16 193.30 C 386.02 191.82 383.88 190.37 381.69 188.98 C 381.57 189.48 381.33 190.46 381.21 190.95 C 382.23 191.55 383.23 192.19 384.21 192.87 C 381.43 195.60 380.16 199.22 378.45 202.61 C 378.92 203.45 379.40 204.28 379.89 205.11 C 379.11 205.78 378.33 206.45 377.55 207.12 C 378.65 209.24 379.38 211.51 380.02 213.81 C 379.75 213.49 379.20 212.86 378.93 212.55 C 378.06 211.26 377.23 209.95 376.17 208.82 C 374.98 209.54 373.87 210.38 372.75 211.19 C 372.24 210.73 371.22 209.81 370.71 209.35 C 372.83 207.89 375.13 206.74 377.45 205.62 C 377.49 202.53 377.96 199.44 378.84 196.48 C 379.98 195.14 381.49 194.19 382.87 193.11 C 381.71 192.91 380.55 192.70 379.41 192.50 C 379.42 191.49 379.43 190.48 379.45 189.47 C 380.58 188.98 381.72 188.48 382.86 187.99 C 384.67 189.21 386.45 190.51 388.39 191.54 C 390.53 191.13 392.43 189.96 394.27 188.84 C 393.58 186.38 390.39 186.89 388.50 185.93 C 390.89 184.18 393.74 183.65 396.64 183.71 C 396.39 183.22 395.87 182.24 395.62 181.75 C 398.74 180.44 402.35 181.00 405.35 179.43 C 408.36 177.07 411.13 174.35 414.66 172.73 C 414.38 171.61 414.12 170.48 413.87 169.36 C 413.30 169.04 412.17 168.40 411.61 168.07 C 410.60 169.11 409.58 170.13 408.55 171.14 C 408.24 170.11 407.98 169.06 407.79 168.01 C 415.36 161.84 425.40 159.23 431.86 151.65 C 432.20 153.14 432.52 154.64 432.82 156.14 C 434.28 155.76 435.76 155.47 437.18 154.95 C 437.38 151.97 437.04 148.98 437.02 145.99 C 439.65 146.21 442.28 146.61 444.92 146.47 C 447.64 145.91 450.12 144.41 452.91 144.15 C 457.82 144.80 460.82 149.27 465.29 150.91 C 467.85 151.47 470.47 150.78 473.04 150.60 C 473.74 152.08 474.39 153.59 475.30 154.97 C 477.58 154.25 479.59 152.93 481.69 151.81 C 481.51 145.53 475.29 142.05 473.16 136.51 C 469.48 136.93 465.77 136.75 462.09 137.19 C 462.16 135.41 462.28 133.63 462.43 131.85 C 457.73 131.39 452.31 128.62 448.14 132.05 C 446.47 134.17 445.26 136.61 443.81 138.88 C 440.54 138.20 437.21 138.36 433.95 139.01 C 432.55 137.05 431.16 135.08 429.79 133.09 C 424.78 132.70 420.09 130.39 414.98 130.94 C 416.82 128.53 417.76 125.76 416.66 122.78 C 414.98 123.26 413.23 123.72 411.91 124.94 C 407.75 128.78 401.61 128.74 397.02 131.82 C 394.97 133.74 393.14 136.12 390.32 136.94 C 387.40 137.76 384.39 138.51 381.35 138.57 C 378.31 137.68 376.69 133.64 373.15 134.01 C 369.88 135.22 367.59 138.74 363.84 138.53 C 359.14 139.26 354.40 139.14 349.67 139.01 C 349.65 140.27 349.62 141.53 349.58 142.79 C 346.82 142.93 344.12 142.44 341.47 141.77 C 338.50 141.11 334.90 141.87 332.57 139.48 C 331.05 137.66 329.99 135.51 328.63 133.58 C 327.88 135.08 327.05 136.54 326.41 138.09 C 326.74 139.17 327.24 140.19 327.69 141.22 C 326.37 145.14 325.49 149.19 324.11 153.09 C 322.55 152.71 321.01 152.33 319.45 151.98 C 318.22 153.27 317.07 154.67 315.64 155.74 C 313.86 155.92 312.08 155.60 310.32 155.42 C 313.46 154.59 316.98 154.26 318.58 150.95 C 320.16 151.12 321.73 151.34 323.31 151.57 C 324.66 148.07 324.61 144.10 326.73 140.91 C 325.70 140.00 324.68 139.08 323.67 138.16 C 325.14 136.50 326.62 134.84 327.97 133.09 C 326.59 132.04 325.20 131.02 323.80 130.02 C 321.26 131.75 318.87 133.82 315.94 134.86 C 313.86 134.35 312.24 132.85 310.34 131.97 C 307.91 130.88 305.15 131.22 302.65 130.44 C 299.22 128.39 296.70 124.27 292.24 124.58 C 289.80 125.46 287.64 127.27 284.95 127.27 C 283.04 127.25 281.15 126.96 279.26 126.76 C 278.93 127.39 278.28 128.64 277.96 129.26 C 278.88 130.36 279.81 131.44 280.75 132.54 C 279.45 133.42 278.23 134.43 276.79 135.06 C 274.46 135.30 272.24 134.41 269.98 134.02 C 266.81 134.10 264.37 136.35 261.90 138.05 C 259.29 136.92 257.42 134.63 254.86 133.43 C 251.68 134.81 248.68 136.67 245.17 137.14 C 243.34 137.23 242.43 138.90 241.27 140.06 C 239.45 139.60 237.65 138.97 235.77 138.89 C 234.80 140.26 234.13 141.82 233.10 143.15 C 230.34 143.55 227.46 143.18 224.88 144.47 C 221.17 141.94 216.66 140.93 213.07 138.19 C 208.75 141.03 203.64 141.98 198.73 143.29 C 192.80 144.58 186.49 145.62 180.56 143.82 C 179.42 142.82 178.55 141.56 177.70 140.33 C 177.30 138.14 177.56 135.88 177.37 133.67 C 172.97 134.62 168.48 135.18 164.07 133.91 C 161.24 133.79 160.32 130.08 157.49 129.95 C 155.46 129.70 153.42 129.25 151.38 129.40 C 148.47 132.20 146.14 135.55 144.02 138.97 C 140.12 136.72 135.57 136.85 131.23 136.41 C 131.14 134.67 131.03 132.93 130.91 131.20 C 127.45 131.91 123.93 131.63 120.45 131.72 C 115.34 133.61 110.68 136.79 106.63 140.41 C 105.20 139.49 103.70 138.66 102.41 137.54 C 101.72 135.95 101.27 134.27 100.74 132.62 C 97.54 133.12 94.25 133.04 91.30 131.55 C 89.19 130.27 86.88 131.11 84.71 131.72 C 85.36 133.42 85.92 135.17 86.69 136.82 C 89.45 138.58 94.84 137.69 94.91 142.13 C 95.52 144.73 93.81 146.58 91.93 148.05 C 93.72 152.74 96.08 157.28 96.85 162.29 C 97.48 165.20 97.35 168.20 97.66 171.16 C 101.58 172.78 105.26 174.93 109.19 176.54 C 114.22 176.52 118.52 173.35 122.00 170.00 C 124.42 170.69 126.86 171.34 129.27 172.08 C 128.16 174.01 126.94 175.88 125.69 177.72 C 130.64 176.40 135.73 176.29 140.74 177.29 C 142.90 179.82 145.22 182.19 147.56 184.55 C 149.55 189.54 148.99 194.98 148.11 200.14 C 147.54 204.30 150.22 208.02 154.41 208.58 C 155.07 206.44 155.18 203.54 157.70 202.70 C 161.97 201.60 166.48 201.78 170.84 202.15 C 173.82 203.07 176.42 204.96 179.09 206.54 C 182.36 205.28 185.48 203.40 189.05 203.17 C 193.46 203.01 197.42 199.52 201.92 200.89 C 205.83 200.14 210.02 199.86 213.31 197.37 C 215.30 195.73 217.96 196.20 220.34 196.04 C 221.82 197.78 223.09 200.86 225.90 200.21 C 227.97 200.28 228.79 198.07 230.04 196.83 C 231.09 197.74 232.15 198.65 233.21 199.57 C 235.13 197.94 236.70 195.96 238.43 194.15 C 242.17 192.65 246.48 192.36 249.63 189.61 C 251.67 187.86 254.43 187.65 256.89 186.84 C 261.02 185.55 265.12 184.18 269.30 183.09 C 268.21 180.30 265.43 177.33 267.33 174.28 C 268.78 171.83 268.66 169.01 268.28 166.29 C 272.17 163.91 276.52 164.75 280.72 165.60 C 279.87 163.40 279.14 161.16 278.63 158.85 C 281.82 158.57 285.04 158.76 288.21 158.15 C 290.09 157.46 291.52 159.09 293.01 159.94 C 298.20 158.60 303.52 157.80 308.56 155.93 C 309.00 155.99 309.87 156.13 310.31 156.19 C 306.30 157.87 302.05 158.90 298.08 160.68 C 295.73 160.04 293.45 160.79 291.33 161.78 C 290.86 160.82 290.40 159.86 289.93 158.90 C 287.05 160.82 283.73 160.35 280.54 159.68 C 281.09 161.72 281.72 163.74 282.42 165.74 C 278.20 167.48 273.65 165.81 269.29 166.74 C 269.54 168.67 270.75 170.81 269.66 172.69 C 269.00 174.08 268.26 175.43 267.57 176.81 C 269.10 176.93 270.63 177.06 272.17 177.18 C 270.58 179.87 270.64 184.40 267.06 185.29 C 261.33 186.77 255.06 187.52 250.29 191.30 C 247.20 193.67 242.95 193.41 239.67 195.44 C 237.61 197.40 235.73 199.81 232.86 200.60 C 230.04 201.34 227.14 202.02 224.22 201.97 C 221.33 200.61 219.24 197.86 216.06 197.03 C 213.53 198.50 211.39 200.54 209.14 202.40 C 204.93 201.72 200.75 203.22 196.53 202.62 C 200.22 206.04 204.16 209.23 208.68 211.51 C 208.97 213.06 209.25 214.63 209.53 216.19 C 211.46 215.57 213.36 213.45 215.47 214.51 C 218.16 215.76 221.34 216.99 222.40 220.06 C 221.02 223.76 216.34 224.89 214.47 228.40 C 214.03 230.78 214.01 233.23 213.54 235.62 C 212.62 237.72 211.20 239.57 210.14 241.60 C 212.96 241.23 215.79 240.97 218.62 240.78 C 219.96 245.29 222.13 249.46 224.39 253.56 C 221.68 254.93 218.96 257.22 215.72 256.32 C 218.04 255.24 220.27 254.00 222.51 252.76 C 221.17 250.97 219.60 249.37 218.25 247.59 C 217.87 245.73 217.89 243.83 217.74 241.95 C 214.38 242.56 210.87 243.63 207.58 242.04 C 208.68 239.26 211.51 237.19 211.60 234.07 C 211.97 231.89 211.90 229.67 211.53 227.50 C 215.02 225.34 217.95 222.39 221.48 220.27 C 219.20 218.47 216.48 217.45 213.96 216.07 C 214.52 217.50 215.05 218.95 215.56 220.41 C 213.52 220.73 211.47 220.89 209.41 220.95 C 208.57 218.41 207.95 215.80 207.74 213.14 C 202.77 211.06 199.18 207.04 195.11 203.67 C 190.31 205.40 184.97 204.85 180.49 207.53 C 177.00 209.41 174.27 205.41 171.38 204.05 C 166.82 205.37 162.45 202.51 157.89 204.14 C 157.40 206.29 157.03 208.47 156.77 210.67 C 155.51 211.27 154.26 211.88 153.01 212.50 C 151.74 211.23 150.37 210.05 149.24 208.66 C 147.31 205.87 147.08 202.34 145.40 199.43 C 148.74 196.22 147.49 191.55 146.60 187.60 C 146.04 184.01 142.41 182.21 140.42 179.45 C 135.11 177.94 129.49 177.62 124.33 179.85 C 123.89 177.06 125.47 174.81 126.98 172.65 C 124.82 172.49 121.89 171.03 120.45 173.42 C 117.87 177.06 112.94 177.35 108.98 178.56 C 104.85 176.06 100.12 174.66 96.23 171.79 C 94.30 168.85 95.25 165.20 95.05 161.92 C 95.46 158.01 91.99 155.36 91.18 151.76 C 90.01 147.96 92.20 144.36 93.12 140.76 C 90.83 140.17 88.48 139.98 86.14 139.84 C 85.16 137.71 84.61 135.41 83.64 133.28 C 82.14 130.80 80.22 128.61 78.44 126.33 C 76.01 126.90 73.62 127.84 71.09 127.91 C 72.19 126.74 73.27 125.55 74.30 124.33 C 76.31 124.75 78.34 125.01 80.38 125.22 C 81.16 126.93 82.03 128.60 82.96 130.24 C 85.27 129.98 87.53 129.34 89.86 129.28 C 91.68 129.91 93.35 130.92 95.17 131.55 C 97.14 131.63 99.08 131.19 101.02 130.97 C 102.67 133.30 104.01 135.82 105.00 138.51 C 110.45 136.04 114.72 131.65 120.18 129.22 C 122.12 129.46 123.94 130.28 125.89 130.51 C 127.75 130.29 129.54 129.66 131.35 129.19 C 131.99 131.03 132.56 132.90 133.39 134.66 C 135.37 136.65 138.11 135.31 140.52 135.37 C 141.44 135.95 142.34 136.57 143.22 137.22 C 145.16 134.05 147.61 131.23 149.39 127.97 C 153.06 127.56 156.75 128.26 160.40 127.66 C 161.13 129.17 161.57 130.94 162.86 132.10 C 166.87 133.09 171.03 133.40 175.06 132.32 C 179.34 131.17 179.84 136.66 179.57 139.64 C 181.75 143.05 186.29 143.13 189.91 143.42 C 194.30 142.07 198.87 141.42 203.15 139.68 C 206.75 139.28 210.19 138.25 212.90 135.72 C 216.29 138.93 220.51 141.06 224.99 142.29 C 227.27 142.28 229.54 141.99 231.83 141.89 C 233.49 139.64 234.45 135.63 237.73 135.55 C 238.55 136.68 239.22 137.90 239.93 139.10 C 241.50 134.42 247.28 136.20 250.66 133.78 C 253.11 132.12 256.07 131.88 258.90 131.33 C 259.53 132.81 260.17 134.28 260.88 135.72 C 262.22 134.94 263.59 134.21 264.99 133.51 C 265.00 131.97 265.03 130.44 265.07 128.91 C 263.99 128.41 262.90 127.93 261.81 127.45 C 264.60 124.23 268.02 120.81 267.34 116.16 C 265.85 116.01 264.36 115.86 262.88 115.71 C 264.67 113.00 266.69 110.39 268.00 107.41 C 268.69 104.13 269.52 100.89 270.31 97.63 C 272.89 98.46 275.49 99.29 278.22 99.49 C 277.83 95.57 276.81 91.58 278.53 87.81 C 280.39 88.14 282.23 88.58 284.06 89.03 C 287.56 85.18 292.92 84.62 297.08 81.81 C 298.47 83.67 299.97 85.45 301.45 87.25 C 307.88 86.02 313.40 82.00 319.93 81.36 C 322.06 82.15 324.24 83.01 326.54 82.32 C 328.00 85.81 331.98 84.62 334.98 85.08 C 334.88 83.37 334.76 81.66 334.67 79.95 Z" />
<path fill="#8e9aca" d=" M 335.98 80.91 C 339.48 80.35 342.28 82.11 344.52 84.61 C 341.43 86.94 338.95 90.13 335.26 91.60 C 335.11 92.91 334.97 94.21 334.84 95.52 C 333.08 96.56 331.46 97.80 329.87 99.06 C 330.47 100.47 330.98 101.93 331.74 103.27 C 334.47 104.91 337.88 104.70 340.94 104.27 C 343.73 104.55 346.49 105.03 349.30 105.22 C 348.91 107.11 348.43 108.99 347.94 110.86 C 347.09 110.54 346.25 110.22 345.42 109.91 C 344.52 113.84 342.32 117.48 342.18 121.57 C 342.77 122.42 343.41 123.25 344.08 124.06 C 342.53 124.85 340.69 125.24 339.45 126.52 C 339.20 129.07 339.22 131.67 338.20 134.08 C 338.81 134.64 339.41 135.20 340.03 135.77 C 339.46 137.26 338.92 138.76 338.40 140.27 C 336.32 139.69 334.33 138.86 332.41 137.88 C 331.95 136.35 332.13 134.36 330.52 133.49 C 328.59 132.09 327.03 130.05 324.76 129.20 C 320.55 127.68 318.70 133.68 314.45 133.28 C 314.19 131.76 313.95 130.23 313.71 128.70 C 308.51 130.79 302.62 129.07 298.60 125.38 C 295.81 122.89 291.54 122.30 288.32 124.34 C 284.93 126.68 280.86 125.09 277.22 124.36 C 277.30 127.32 277.27 130.31 278.01 133.21 C 276.45 133.56 274.89 133.86 273.31 134.11 C 272.86 132.65 272.41 131.19 271.93 129.74 C 270.26 130.84 268.64 132.00 267.03 133.17 C 266.98 131.57 266.94 129.97 266.91 128.38 C 266.21 128.03 264.79 127.33 264.09 126.98 C 266.46 124.00 269.96 120.18 267.98 116.11 C 267.48 115.66 266.47 114.78 265.96 114.33 C 267.10 111.55 269.02 109.25 270.80 106.87 C 270.63 105.81 269.84 105.00 269.31 104.11 C 270.24 103.69 271.17 103.26 272.10 102.83 C 271.67 101.52 271.22 100.22 270.80 98.91 C 273.17 99.76 275.55 100.58 277.95 101.30 C 279.01 99.56 279.99 97.78 280.89 95.95 C 279.93 94.96 278.99 93.96 278.07 92.95 C 278.61 91.64 279.13 90.32 279.61 88.98 C 281.64 89.54 283.70 90.00 285.79 90.34 C 287.76 85.68 293.30 86.23 296.83 83.44 C 298.07 84.94 298.79 86.83 300.18 88.21 C 303.91 88.14 307.34 86.53 310.91 85.64 C 313.68 83.91 316.76 82.93 319.97 82.39 C 321.60 83.65 323.54 84.30 325.61 84.20 C 328.91 86.22 333.11 87.38 336.78 85.63 C 336.52 84.05 336.23 82.48 335.98 80.91 Z" />
<path fill="#c693bc" d=" M 363.81 104.48 C 366.59 101.85 370.11 100.25 373.24 98.09 C 376.69 97.40 378.31 101.65 380.88 103.24 C 381.13 105.81 380.82 108.58 382.03 110.96 C 386.28 113.63 392.79 112.90 395.35 117.86 C 399.05 118.02 402.79 118.56 406.46 117.71 C 409.73 117.00 411.70 120.39 414.13 121.92 C 413.43 121.99 412.02 122.12 411.32 122.19 C 411.00 123.21 410.67 124.24 410.35 125.26 C 404.98 126.76 399.94 129.32 394.43 130.36 C 394.36 133.22 392.18 134.75 389.99 136.14 C 389.02 135.22 388.05 134.30 387.07 133.41 C 386.25 134.63 385.46 135.87 384.65 137.10 C 381.29 137.39 378.98 135.32 377.58 132.47 C 375.27 132.70 372.62 131.99 370.65 133.55 C 368.69 134.70 366.92 136.92 364.39 136.36 C 362.38 135.84 360.62 136.83 358.99 137.88 C 358.09 137.52 357.33 136.52 356.29 136.73 C 353.22 137.19 350.13 137.46 347.02 137.21 C 347.32 138.77 347.66 140.33 347.99 141.89 C 345.33 141.29 342.77 140.33 340.25 139.33 C 340.88 137.91 341.53 136.50 342.16 135.07 C 341.26 134.64 340.35 134.22 339.45 133.81 C 341.26 131.82 341.36 129.22 341.03 126.70 C 343.41 126.35 344.79 124.36 346.20 122.62 C 345.61 122.37 344.42 121.85 343.82 121.59 C 343.58 116.75 346.57 112.88 349.66 109.54 C 351.44 108.06 350.71 105.84 350.23 103.94 C 351.41 104.07 352.59 104.20 353.78 104.32 C 356.28 100.90 360.53 104.31 363.81 104.48 Z" />
<path fill="#988e35" d=" M 204.10 110.42 C 207.41 110.58 202.55 113.41 204.10 110.42 Z" />
<path fill="#fbcc8c" d=" M 15.72 118.32 C 17.19 116.63 18.38 114.61 20.19 113.26 C 22.67 113.28 25.15 113.35 27.62 113.51 C 32.50 118.20 40.02 119.49 46.25 116.86 C 46.30 119.23 46.23 121.60 46.12 123.97 C 49.38 124.54 52.56 125.63 54.95 128.01 L 55.09 128.49 C 54.46 128.43 53.19 128.30 52.56 128.23 C 50.48 127.93 48.63 129.02 46.72 129.60 C 44.01 129.56 41.30 129.26 38.62 129.83 C 38.34 132.37 37.91 134.92 36.72 137.22 C 36.27 137.04 35.38 136.68 34.93 136.50 C 32.32 135.49 31.65 132.70 30.25 130.58 C 28.01 126.96 23.65 124.68 23.42 120.01 C 20.79 119.76 18.12 119.52 15.72 118.32 Z" />
<path fill="#80d3f1" d=" M 54.15 124.35 C 56.60 123.56 59.11 122.80 61.24 121.30 C 60.75 123.45 60.78 125.66 60.59 127.85 C 57.76 131.03 51.81 129.59 50.20 133.96 C 49.42 135.64 48.99 137.45 48.51 139.24 C 43.64 140.84 38.67 135.96 40.25 131.10 C 44.64 132.39 49.23 131.44 52.56 128.23 C 53.19 128.30 54.46 128.43 55.09 128.49 L 54.95 128.01 C 54.67 126.79 54.40 125.57 54.15 124.35 Z" />
<path fill="#05090b" d=" M 61.24 121.30 C 61.71 122.80 62.02 124.35 62.46 125.85 C 65.01 126.83 67.83 126.78 70.34 127.89 C 66.04 127.99 61.70 128.90 57.95 131.08 C 56.33 132.07 54.44 132.32 52.58 132.49 C 51.84 136.47 50.34 140.34 46.97 142.83 C 43.49 141.06 40.26 138.84 36.72 137.22 C 37.91 134.92 38.34 132.37 38.62 129.83 C 41.30 129.26 44.01 129.56 46.72 129.60 C 48.63 129.02 50.48 127.93 52.56 128.23 C 49.23 131.44 44.64 132.39 40.25 131.10 C 38.67 135.96 43.64 140.84 48.51 139.24 C 48.99 137.45 49.42 135.64 50.20 133.96 C 51.81 129.59 57.76 131.03 60.59 127.85 C 60.78 125.66 60.75 123.45 61.24 121.30 Z" />
<path fill="#92c897" d=" M 411.91 124.94 C 413.23 123.72 414.98 123.26 416.66 122.78 C 417.76 125.76 416.82 128.53 414.98 130.94 C 420.09 130.39 424.78 132.70 429.79 133.09 C 431.16 135.08 432.55 137.05 433.95 139.01 C 437.21 138.36 440.54 138.20 443.81 138.88 C 445.26 136.61 446.47 134.17 448.14 132.05 C 452.31 128.62 457.73 131.39 462.43 131.85 C 462.28 133.63 462.16 135.41 462.09 137.19 C 465.77 136.75 469.48 136.93 473.16 136.51 C 475.29 142.05 481.51 145.53 481.69 151.81 C 479.59 152.93 477.58 154.25 475.30 154.97 C 474.39 153.59 473.74 152.08 473.04 150.60 C 470.47 150.78 467.85 151.47 465.29 150.91 C 460.82 149.27 457.82 144.80 452.91 144.15 C 450.12 144.41 447.64 145.91 444.92 146.47 C 442.28 146.61 439.65 146.21 437.02 145.99 C 437.04 148.98 437.38 151.97 437.18 154.95 C 435.76 155.47 434.28 155.76 432.82 156.14 C 432.52 154.64 432.20 153.14 431.86 151.65 C 425.40 159.23 415.36 161.84 407.79 168.01 C 407.98 169.06 408.24 170.11 408.55 171.14 C 409.58 170.13 410.60 169.11 411.61 168.07 C 412.17 168.40 413.30 169.04 413.87 169.36 C 414.12 170.48 414.38 171.61 414.66 172.73 C 411.13 174.35 408.36 177.07 405.35 179.43 C 402.35 181.00 398.74 180.44 395.62 181.75 C 395.87 182.24 396.39 183.22 396.64 183.71 C 393.74 183.65 390.89 184.18 388.50 185.93 C 390.39 186.89 393.58 186.38 394.27 188.84 C 392.43 189.96 390.53 191.13 388.39 191.54 C 386.45 190.51 384.67 189.21 382.86 187.99 C 381.72 188.48 380.58 188.98 379.45 189.47 C 379.43 190.48 379.42 191.49 379.41 192.50 C 380.55 192.70 381.71 192.91 382.87 193.11 C 381.49 194.19 379.98 195.14 378.84 196.48 C 377.96 199.44 377.49 202.53 377.45 205.62 C 375.13 206.74 372.83 207.89 370.71 209.35 C 371.22 209.81 372.24 210.73 372.75 211.19 C 373.87 210.38 374.98 209.54 376.17 208.82 C 377.23 209.95 378.06 211.26 378.93 212.55 L 379.36 213.37 C 374.54 215.08 371.00 218.81 366.94 221.72 C 364.36 221.25 361.76 221.63 359.22 222.14 C 359.65 222.90 360.09 223.67 360.53 224.44 C 360.05 224.59 359.11 224.89 358.63 225.05 C 356.99 224.78 355.31 224.89 353.70 225.28 C 354.64 226.39 355.88 227.17 357.09 227.97 C 358.48 231.75 361.15 234.79 363.47 238.01 C 361.80 238.99 360.09 239.93 358.51 241.05 C 359.59 242.36 360.83 243.52 362.04 244.72 C 353.96 246.88 345.57 246.99 337.29 247.62 C 335.61 246.57 336.55 244.35 336.33 242.75 C 335.89 242.88 335.00 243.15 334.55 243.28 C 333.68 247.96 332.90 252.78 330.53 256.99 C 330.27 257.13 329.74 257.42 329.47 257.56 C 326.85 256.72 324.46 258.06 322.18 259.18 C 324.96 261.82 327.39 264.99 327.81 268.93 C 330.05 268.79 332.28 268.32 334.53 268.46 C 338.10 270.34 339.81 273.92 340.59 277.70 C 337.92 279.23 335.39 280.98 332.82 282.67 C 333.12 287.34 327.63 288.19 324.99 290.96 C 324.28 292.68 324.00 294.54 323.30 296.27 C 322.12 298.84 319.30 299.90 316.90 301.00 C 314.30 302.17 311.59 300.66 309.02 300.13 C 309.54 298.80 310.25 297.53 310.54 296.12 C 310.56 293.74 309.08 291.77 307.87 289.86 C 309.53 286.94 311.73 284.23 312.66 280.95 C 311.45 277.89 308.69 275.80 306.40 273.57 C 303.85 272.68 301.18 272.18 298.58 271.48 C 302.43 267.46 303.17 261.78 306.29 257.34 C 305.52 256.53 304.75 255.73 303.99 254.93 C 305.65 252.35 307.40 249.52 310.83 249.39 C 310.39 247.57 309.94 245.75 309.49 243.93 C 311.03 242.96 312.58 241.98 314.12 241.00 C 312.31 239.67 310.82 237.59 308.44 237.35 C 306.31 237.04 304.31 236.28 302.57 235.01 C 299.22 237.88 295.16 239.93 292.44 243.48 C 290.72 245.87 287.78 246.74 285.59 248.56 C 284.43 250.05 283.61 251.77 282.68 253.41 C 285.64 256.60 283.79 260.94 283.75 264.76 C 279.30 265.71 274.87 266.71 270.37 267.37 C 266.79 268.72 263.85 271.32 260.55 273.21 C 256.75 274.05 252.74 275.30 248.89 274.10 C 244.87 273.03 240.64 272.83 236.79 271.20 C 231.35 268.86 225.63 271.93 220.05 271.64 C 215.66 269.68 213.62 265.17 210.76 261.63 C 212.09 259.79 213.49 258.01 214.92 256.25 L 215.72 256.32 C 218.96 257.22 221.68 254.93 224.39 253.56 C 222.13 249.46 219.96 245.29 218.62 240.78 C 215.79 240.97 212.96 241.23 210.14 241.60 C 211.20 239.57 212.62 237.72 213.54 235.62 C 214.01 233.23 214.03 230.78 214.47 228.40 C 216.34 224.89 221.02 223.76 222.40 220.06 C 221.34 216.99 218.16 215.76 215.47 214.51 C 213.36 213.45 211.46 215.57 209.53 216.19 C 209.25 214.63 208.97 213.06 208.68 211.51 C 204.16 209.23 200.22 206.04 196.53 202.62 C 200.75 203.22 204.93 201.72 209.14 202.40 C 211.39 200.54 213.53 198.50 216.06 197.03 C 219.24 197.86 221.33 200.61 224.22 201.97 C 227.14 202.02 230.04 201.34 232.86 200.60 C 235.73 199.81 237.61 197.40 239.67 195.44 C 242.95 193.41 247.20 193.67 250.29 191.30 C 255.06 187.52 261.33 186.77 267.06 185.29 C 270.64 184.40 270.58 179.87 272.17 177.18 C 270.63 177.06 269.10 176.93 267.57 176.81 C 268.26 175.43 269.00 174.08 269.66 172.69 C 270.75 170.81 269.54 168.67 269.29 166.74 C 273.65 165.81 278.20 167.48 282.42 165.74 C 281.72 163.74 281.09 161.72 280.54 159.68 C 283.73 160.35 287.05 160.82 289.93 158.90 C 290.40 159.86 290.86 160.82 291.33 161.78 C 293.45 160.79 295.73 160.04 298.08 160.68 C 302.05 158.90 306.30 157.87 310.31 156.19 C 309.87 156.13 309.00 155.99 308.56 155.93 C 309.00 155.80 309.88 155.55 310.32 155.42 C 312.08 155.60 313.86 155.92 315.64 155.74 C 317.07 154.67 318.22 153.27 319.45 151.98 C 321.01 152.33 322.55 152.71 324.11 153.09 C 325.49 149.19 326.37 145.14 327.69 141.22 C 327.24 140.19 326.74 139.17 326.41 138.09 C 327.05 136.54 327.88 135.08 328.63 133.58 C 329.99 135.51 331.05 137.66 332.57 139.48 C 334.90 141.87 338.50 141.11 341.47 141.77 C 344.12 142.44 346.82 142.93 349.58 142.79 C 349.62 141.53 349.65 140.27 349.67 139.01 C 354.40 139.14 359.14 139.26 363.84 138.53 C 367.59 138.74 369.88 135.22 373.15 134.01 C 376.69 133.64 378.31 137.68 381.35 138.57 C 384.39 138.51 387.40 137.76 390.32 136.94 C 393.14 136.12 394.97 133.74 397.02 131.82 C 401.61 128.74 407.75 128.78 411.91 124.94 Z" />
<path fill="#85d0f0" d=" M 292.24 124.58 C 296.70 124.27 299.22 128.39 302.65 130.44 C 305.15 131.22 307.91 130.88 310.34 131.97 C 312.24 132.85 313.86 134.35 315.94 134.86 C 318.87 133.82 321.26 131.75 323.80 130.02 C 325.20 131.02 326.59 132.04 327.97 133.09 C 326.62 134.84 325.14 136.50 323.67 138.16 C 324.68 139.08 325.70 140.00 326.73 140.91 C 324.61 144.10 324.66 148.07 323.31 151.57 C 321.73 151.34 320.16 151.12 318.58 150.95 C 316.98 154.26 313.46 154.59 310.32 155.42 C 309.88 155.55 309.00 155.80 308.56 155.93 C 303.52 157.80 298.20 158.60 293.01 159.94 C 291.52 159.09 290.09 157.46 288.21 158.15 C 285.04 158.76 281.82 158.57 278.63 158.85 C 279.14 161.16 279.87 163.40 280.72 165.60 C 276.52 164.75 272.17 163.91 268.28 166.29 C 268.66 169.01 268.78 171.83 267.33 174.28 C 265.43 177.33 268.21 180.30 269.30 183.09 C 265.12 184.18 261.02 185.55 256.89 186.84 C 254.43 187.65 251.67 187.86 249.63 189.61 C 246.48 192.36 242.17 192.65 238.43 194.15 C 236.70 195.96 235.13 197.94 233.21 199.57 C 232.15 198.65 231.09 197.74 230.04 196.83 C 228.79 198.07 227.97 200.28 225.90 200.21 C 223.09 200.86 221.82 197.78 220.34 196.04 C 217.96 196.20 215.30 195.73 213.31 197.37 C 210.02 199.86 205.83 200.14 201.92 200.89 C 197.42 199.52 193.46 203.01 189.05 203.17 C 185.48 203.40 182.36 205.28 179.09 206.54 C 176.42 204.96 173.82 203.07 170.84 202.15 C 166.48 201.78 161.97 201.60 157.70 202.70 C 155.18 203.54 155.07 206.44 154.41 208.58 C 150.22 208.02 147.54 204.30 148.11 200.14 C 148.99 194.98 149.55 189.54 147.56 184.55 C 145.22 182.19 142.90 179.82 140.74 177.29 C 135.73 176.29 130.64 176.40 125.69 177.72 C 126.94 175.88 128.16 174.01 129.27 172.08 C 126.86 171.34 124.42 170.69 122.00 170.00 C 118.52 173.35 114.22 176.52 109.19 176.54 C 105.26 174.93 101.58 172.78 97.66 171.16 C 97.35 168.20 97.48 165.20 96.85 162.29 C 96.08 157.28 93.72 152.74 91.93 148.05 C 93.81 146.58 95.52 144.73 94.91 142.13 C 94.84 137.69 89.45 138.58 86.69 136.82 C 85.92 135.17 85.36 133.42 84.71 131.72 C 86.88 131.11 89.19 130.27 91.30 131.55 C 94.25 133.04 97.54 133.12 100.74 132.62 C 101.27 134.27 101.72 135.95 102.41 137.54 C 103.70 138.66 105.20 139.49 106.63 140.41 C 110.68 136.79 115.34 133.61 120.45 131.72 C 123.93 131.63 127.45 131.91 130.91 131.20 C 131.03 132.93 131.14 134.67 131.23 136.41 C 135.57 136.85 140.12 136.72 144.02 138.97 C 146.14 135.55 148.47 132.20 151.38 129.40 C 153.42 129.25 155.46 129.70 157.49 129.95 C 160.32 130.08 161.24 133.79 164.07 133.91 C 168.48 135.18 172.97 134.62 177.37 133.67 C 177.56 135.88 177.30 138.14 177.70 140.33 C 178.55 141.56 179.42 142.82 180.56 143.82 C 186.49 145.62 192.80 144.58 198.73 143.29 C 203.64 141.98 208.75 141.03 213.07 138.19 C 216.66 140.93 221.17 141.94 224.88 144.47 C 227.46 143.18 230.34 143.55 233.10 143.15 C 234.13 141.82 234.80 140.26 235.77 138.89 C 237.65 138.97 239.45 139.60 241.27 140.06 C 242.43 138.90 243.34 137.23 245.17 137.14 C 248.68 136.67 251.68 134.81 254.86 133.43 C 257.42 134.63 259.29 136.92 261.90 138.05 C 264.37 136.35 266.81 134.10 269.98 134.02 C 272.24 134.41 274.46 135.30 276.79 135.06 C 278.23 134.43 279.45 133.42 280.75 132.54 C 279.81 131.44 278.88 130.36 277.96 129.26 C 278.28 128.64 278.93 127.39 279.26 126.76 C 281.15 126.96 283.04 127.25 284.95 127.27 C 287.64 127.27 289.80 125.46 292.24 124.58 Z" />
<path fill="#faf699" d=" M 424.64 131.48 C 424.87 129.70 425.51 128.07 427.19 127.22 C 428.98 128.77 430.98 130.12 433.10 131.19 C 436.11 131.23 439.30 131.70 441.75 129.53 C 442.91 131.11 444.15 132.63 445.41 134.14 C 444.56 135.11 443.83 136.20 442.84 137.05 C 440.22 137.09 437.59 137.03 434.98 137.34 C 433.49 135.37 432.10 133.21 430.04 131.79 C 428.41 130.73 426.42 131.43 424.64 131.48 Z" />
<path fill="#85d0f0" d=" M 446.01 148.54 C 448.62 148.49 450.47 146.03 453.03 145.83 C 457.25 146.18 459.53 150.16 462.64 152.48 C 465.20 153.15 467.93 152.79 470.47 153.56 C 472.06 154.55 473.45 155.84 475.11 156.74 C 478.11 156.15 480.28 153.70 483.12 152.75 C 486.90 152.33 490.66 153.26 494.45 153.41 C 490.67 157.75 485.96 161.05 481.32 164.37 C 482.91 169.46 486.83 173.13 490.10 177.15 C 487.03 178.43 483.84 179.44 480.82 180.84 C 479.26 182.32 477.88 184.04 476.96 186.00 C 477.73 187.64 479.05 188.92 480.27 190.23 C 479.46 191.19 478.65 192.14 477.85 193.10 C 480.13 193.47 482.42 193.75 484.71 194.04 C 484.86 194.86 485.17 196.49 485.32 197.30 C 492.32 196.83 499.54 193.82 506.45 196.44 C 509.34 198.94 512.26 201.48 514.61 204.53 C 512.24 204.98 509.85 206.14 507.41 205.58 C 505.45 205.30 503.42 204.59 501.47 205.24 C 499.32 207.93 497.92 211.15 497.63 214.60 C 495.98 214.97 494.34 215.34 492.73 215.82 C 488.19 216.88 485.20 220.74 481.77 223.58 C 483.75 225.08 485.24 227.04 485.46 229.60 C 483.59 230.15 481.74 230.71 479.89 231.27 C 480.11 233.68 480.37 236.09 480.61 238.50 C 480.07 238.54 478.98 238.63 478.44 238.68 C 477.97 236.46 477.47 234.25 476.83 232.08 C 475.12 232.08 473.40 232.00 471.71 232.26 C 470.87 233.33 470.06 234.43 469.27 235.54 C 466.92 234.44 465.39 232.43 464.54 230.01 C 461.43 230.89 458.26 231.48 455.10 232.10 C 455.01 234.55 454.92 237.01 454.86 239.47 C 452.07 240.55 448.08 240.63 446.79 243.81 C 445.59 246.22 444.47 248.71 442.65 250.74 C 440.30 252.81 442.93 256.32 440.79 258.52 C 439.45 259.31 438.01 259.94 436.62 260.64 C 437.17 262.73 437.88 264.78 438.71 266.79 C 436.20 267.92 433.56 268.81 431.21 270.27 C 430.36 272.53 430.22 275.00 429.22 277.21 C 428.08 279.01 426.48 280.45 425.04 282.01 C 426.99 282.84 428.96 283.63 430.98 284.33 C 425.35 287.75 427.35 295.22 428.45 300.50 C 430.19 300.66 432.04 300.49 433.70 301.17 C 436.53 304.30 439.28 308.16 438.54 312.61 C 441.32 312.77 444.11 313.05 446.78 313.89 C 445.24 315.80 444.05 317.95 443.58 320.38 C 445.82 321.11 448.04 321.89 450.27 322.69 C 448.11 327.24 445.00 331.22 441.74 335.01 C 442.74 336.05 443.90 336.94 445.03 337.86 C 442.99 339.28 441.11 340.97 438.85 342.03 C 435.96 341.34 433.30 339.84 430.29 339.59 C 430.16 340.99 430.04 342.40 429.93 343.81 C 425.86 343.49 421.85 342.94 417.90 341.90 C 414.05 341.12 411.81 344.95 410.44 347.89 C 408.05 347.08 405.64 346.35 403.20 345.73 C 401.50 347.25 400.02 349.33 397.63 349.76 C 395.48 350.16 393.29 350.20 391.12 350.29 C 391.46 348.59 391.82 346.89 392.16 345.19 C 391.06 344.38 389.97 343.57 388.88 342.76 C 389.50 342.01 390.13 341.27 390.75 340.53 C 387.30 338.75 386.81 334.39 383.67 332.31 C 380.98 330.38 377.78 329.40 374.81 328.03 C 373.53 329.88 371.80 331.23 369.48 331.36 C 370.13 328.67 371.81 326.48 373.84 324.67 C 370.68 322.35 367.66 319.84 364.52 317.50 C 360.14 317.95 355.74 318.34 351.35 317.66 C 350.92 316.47 350.57 315.24 349.94 314.15 C 348.49 313.61 346.93 313.75 345.43 313.70 C 344.09 310.24 342.24 305.41 337.89 305.30 C 335.25 304.81 332.48 304.29 330.20 302.80 C 328.37 301.26 326.73 299.47 324.51 298.50 C 325.38 296.38 325.47 294.08 326.04 291.89 C 327.85 289.59 330.94 288.86 333.18 287.06 C 335.65 285.45 335.99 282.10 338.28 280.33 C 339.78 279.00 341.93 279.26 343.77 278.91 C 342.60 277.44 341.42 275.91 341.09 274.01 C 340.81 271.06 338.03 269.58 336.10 267.72 C 334.04 265.75 331.25 267.75 328.94 268.11 C 328.75 265.03 327.06 262.40 325.27 260.00 C 326.66 259.16 328.05 258.33 329.47 257.56 C 329.74 257.42 330.27 257.13 330.53 256.99 C 333.96 255.79 335.07 252.28 335.36 249.00 C 343.07 247.79 351.11 249.20 358.60 246.61 C 360.54 245.94 362.90 245.96 364.32 244.28 C 363.09 243.14 361.75 242.13 360.44 241.09 C 362.17 240.27 363.89 239.42 365.58 238.52 C 362.40 234.53 359.41 230.22 358.63 225.05 C 359.11 224.89 360.05 224.59 360.53 224.44 C 364.24 222.82 368.68 222.69 371.72 219.71 C 374.07 217.35 377.47 216.19 379.36 213.37 L 378.93 212.55 C 379.20 212.86 379.75 213.49 380.02 213.81 C 379.38 211.51 378.65 209.24 377.55 207.12 C 378.33 206.45 379.11 205.78 379.89 205.11 C 379.40 204.28 378.92 203.45 378.45 202.61 C 380.16 199.22 381.43 195.60 384.21 192.87 C 383.23 192.19 382.23 191.55 381.21 190.95 C 381.33 190.46 381.57 189.48 381.69 188.98 C 383.88 190.37 386.02 191.82 388.16 193.30 C 390.97 192.02 393.69 190.57 396.23 188.82 C 395.53 187.90 394.82 186.99 394.13 186.08 C 396.43 185.34 398.33 184.01 399.12 181.63 C 401.57 181.83 404.28 182.06 406.19 180.18 C 409.24 177.46 412.76 175.38 416.02 172.95 C 415.64 170.38 414.61 167.98 413.58 165.61 C 418.98 162.07 425.20 159.78 430.03 155.44 C 433.21 157.93 437.48 157.14 440.60 154.97 C 439.74 153.60 438.84 152.26 437.94 150.92 C 438.48 149.95 439.02 148.97 439.56 147.99 C 441.71 148.17 443.84 148.62 446.01 148.54 Z" />
<path fill="#989793" d=" M 409.24 168.27 C 409.80 168.84 409.80 168.84 409.24 168.27 Z" />
<path fill="#90c796" d=" M 492.26 175.02 C 496.08 175.05 499.90 175.32 503.63 176.17 C 504.02 178.12 504.29 180.12 505.01 181.98 C 506.64 182.74 508.41 183.08 510.15 183.56 C 508.54 187.41 508.93 192.48 504.99 194.92 C 499.86 192.53 494.32 194.93 489.07 195.39 C 486.44 194.18 483.93 192.45 480.90 192.55 C 481.36 191.42 481.81 190.30 482.25 189.17 C 481.00 188.18 479.76 187.19 478.56 186.17 C 479.48 184.82 480.40 183.46 481.27 182.07 C 485.62 181.23 490.39 179.37 492.26 175.02 Z" />
<path fill="#e0e0de" d=" M 392.24 185.20 C 392.88 185.84 392.88 185.84 392.24 185.20 Z" />
<path fill="#ffffff" d=" M 509.10 209.12 C 511.15 207.17 513.61 205.78 516.00 204.28 L 516.00 353.00 L 392.83 353.00 C 396.40 351.44 400.26 350.54 403.53 348.34 C 406.62 346.73 409.15 350.20 411.56 351.60 C 412.81 348.58 413.13 344.02 417.10 343.37 C 421.63 344.73 426.25 345.65 431.01 345.12 C 431.34 343.76 431.66 342.40 431.98 341.04 C 434.79 342.27 438.05 344.72 441.15 343.05 C 443.58 342.00 445.08 339.67 447.15 338.10 C 447.12 337.29 447.05 335.66 447.01 334.85 C 446.18 334.86 444.52 334.88 443.69 334.89 C 447.78 331.43 451.42 326.89 451.92 321.37 C 449.41 320.94 446.94 320.35 444.50 319.66 C 445.83 317.89 447.27 316.22 448.69 314.53 C 447.69 313.36 446.76 312.13 445.59 311.14 C 443.98 311.00 442.37 311.20 440.77 311.30 C 440.63 309.87 441.26 308.13 440.15 306.96 C 437.97 304.35 436.32 301.33 434.06 298.79 C 432.72 298.79 431.39 298.82 430.06 298.89 C 429.97 296.29 428.57 293.48 430.00 291.05 C 430.68 288.77 432.53 287.31 434.16 285.73 C 433.37 282.95 429.78 282.69 427.59 281.35 C 431.35 279.36 432.09 275.11 432.19 271.23 C 435.97 271.11 438.91 268.62 441.43 266.04 C 440.46 264.59 439.23 263.34 438.09 262.03 C 440.93 260.59 443.27 258.42 445.01 255.76 C 444.25 254.54 443.48 253.33 442.73 252.11 C 444.05 251.53 445.39 250.98 446.74 250.46 C 447.11 248.01 447.69 245.60 448.26 243.20 C 451.10 242.10 453.98 241.10 456.99 240.57 C 457.06 238.12 457.13 235.66 457.08 233.21 C 459.21 232.99 461.33 232.63 463.41 232.12 C 464.49 234.79 467.13 235.91 469.61 236.94 C 471.57 235.58 473.45 234.11 475.43 232.79 C 475.75 234.90 475.69 237.05 475.38 239.16 C 476.87 239.74 478.36 240.32 479.86 240.91 C 480.70 239.89 481.63 238.93 482.32 237.79 C 482.14 236.24 481.70 234.73 481.34 233.22 C 483.54 232.53 485.73 231.81 487.91 231.03 C 487.22 228.18 486.29 225.41 484.70 222.92 C 486.58 221.76 488.30 220.38 489.96 218.92 C 492.14 216.77 495.47 217.23 498.10 216.03 C 501.37 214.64 499.61 210.19 501.86 207.87 C 503.84 205.13 506.93 208.17 509.10 209.12 Z" />
<path fill="#05090b" d=" M 366.94 221.72 C 371.00 218.81 374.54 215.08 379.36 213.37 C 377.47 216.19 374.07 217.35 371.72 219.71 C 368.68 222.69 364.24 222.82 360.53 224.44 C 360.09 223.67 359.65 222.90 359.22 222.14 C 361.76 221.63 364.36 221.25 366.94 221.72 Z" />
<path fill="#d4d3cf" d=" M 211.32 218.13 C 214.37 216.58 211.57 221.40 211.32 218.13 Z" />
<path fill="#05090b" d=" M 353.70 225.28 C 355.31 224.89 356.99 224.78 358.63 225.05 C 359.41 230.22 362.40 234.53 365.58 238.52 C 363.89 239.42 362.17 240.27 360.44 241.09 C 361.75 242.13 363.09 243.14 364.32 244.28 C 362.90 245.96 360.54 245.94 358.60 246.61 C 351.11 249.20 343.07 247.79 335.36 249.00 C 335.07 252.28 333.96 255.79 330.53 256.99 C 332.90 252.78 333.68 247.96 334.55 243.28 C 335.00 243.15 335.89 242.88 336.33 242.75 C 336.55 244.35 335.61 246.57 337.29 247.62 C 345.57 246.99 353.96 246.88 362.04 244.72 C 360.83 243.52 359.59 242.36 358.51 241.05 C 360.09 239.93 361.80 238.99 363.47 238.01 C 361.15 234.79 358.48 231.75 357.09 227.97 C 355.88 227.17 354.64 226.39 353.70 225.28 Z" />
</svg>
